<?xml version="1.0" standalone="no"?>
<!DOCTYPE svg PUBLIC "-//W3C//DTD SVG 20010904//EN"
 "http://www.w3.org/TR/2001/REC-SVG-20010904/DTD/svg10.dtd">
<svg version="1.0" xmlns="http://www.w3.org/2000/svg"
 width="512.000000pt" height="512.000000pt" viewBox="0 0 512.000000 512.000000"
 preserveAspectRatio="xMidYMid meet">
<metadata>
Created by potrace 1.16, written by Peter Selinger 2001-2019
</metadata>
<g transform="translate(0.000000,512.000000) scale(0.100000,-0.100000)"
fill="#000000" stroke="none">
<path d="M2420 5014 c-180 -21 -294 -49 -420 -104 -150 -64 -250 -133 -395
-270 -100 -93 -115 -115 -115 -164 0 -30 7 -45 33 -70 l32 -33 135 -7 c522
-27 790 -179 850 -483 20 -98 8 -273 -22 -355 -29 -76 -91 -184 -143 -243
l-34 -41 353 -353 353 -353 88 57 c164 106 344 190 451 211 l32 6 4 -94 c3
-76 8 -100 25 -123 12 -17 142 -150 290 -296 233 -232 273 -267 306 -273 28
-5 47 -2 72 11 27 14 679 745 783 878 33 41 30 102 -7 151 -34 46 -404 414
-441 438 -17 11 -47 16 -97 16 l-73 0 0 73 c0 66 -3 78 -29 113 -42 58 -945
951 -1026 1015 -250 198 -491 284 -820 293 -82 2 -166 2 -185 0z"/>
<path d="M1144 2048 c-1134 -1137 -1091 -1089 -1128 -1234 -25 -98 -21 -240 9
-331 64 -188 218 -327 410 -368 88 -19 142 -19 230 0 91 19 187 67 249 124 37
34 1858 2030 1958 2147 17 19 8 30 -330 367 l-347 347 -1051 -1052z"/>
</g>
</svg>
