<?xml version="1.0" standalone="no"?>
<!DOCTYPE svg PUBLIC "-//W3C//DTD SVG 20010904//EN"
 "http://www.w3.org/TR/2001/REC-SVG-20010904/DTD/svg10.dtd">
<svg version="1.0" xmlns="http://www.w3.org/2000/svg"
 width="512.000000pt" height="512.000000pt" viewBox="0 0 512.000000 512.000000"
 preserveAspectRatio="xMidYMid meet">

<g transform="translate(0.000000,512.000000) scale(0.100000,-0.100000)"
fill="#ffffffd0" stroke="none">
<path d="M735 5113 c-45 -9 -100 -59 -130 -118 l-30 -59 -3 -1628 -2 -1628
1990 0 1990 0 -2 1143 c-2 914 -6 1148 -16 1172 -20 45 -1058 1081 -1108 1105
-40 20 -65 20 -1355 19 -723 -1 -1323 -4 -1334 -6z m3098 -700 c255 -255 450
-458 454 -472 4 -18 0 -29 -17 -43 -21 -17 -52 -18 -491 -18 l-469 0 0 478 c0
358 3 481 12 490 36 36 50 24 511 -435z m-1199 -33 c24 -23 51 -55 59 -73 36
-76 31 -199 -20 -451 l-25 -128 48 -92 c90 -170 216 -359 332 -496 31 -36 58
-68 61 -72 4 -4 49 -1 101 7 181 28 344 16 415 -31 58 -38 70 -120 29 -202
-68 -137 -214 -178 -366 -103 -58 29 -89 51 -192 134 l-35 28 -153 -40 c-185
-48 -326 -94 -496 -160 l-127 -51 -53 -105 c-112 -226 -233 -387 -324 -433
-72 -35 -126 -27 -186 31 -170 162 -41 372 352 570 l99 50 32 72 c85 186 197
499 265 738 l39 138 -40 101 c-22 55 -52 144 -66 197 -54 209 -8 371 112 400
75 17 93 13 139 -29z"/>
<path d="M2510 4219 c-29 -65 -27 -141 6 -197 l27 -45 14 34 c32 76 25 208
-12 239 -13 10 -18 5 -35 -31z"/>
<path d="M2586 3499 c-3 -8 -28 -86 -57 -174 -28 -88 -78 -229 -110 -314 -33
-85 -59 -155 -59 -156 0 -2 76 23 168 54 93 32 219 70 280 86 62 16 112 32
112 35 0 3 -18 28 -41 55 -62 77 -165 226 -230 332 -34 56 -60 90 -63 82z"/>
<path d="M3260 2932 c0 -19 96 -81 125 -82 68 -1 151 58 114 81 -17 11 -239
12 -239 1z"/>
<path d="M1967 2493 c-38 -24 -95 -70 -128 -101 -66 -64 -77 -103 -39 -137 20
-18 21 -18 73 36 46 47 174 236 165 244 -2 1 -34 -18 -71 -42z"/>
<path d="M572 823 c3 -756 -1 -712 73 -769 74 -56 -37 -53 1915 -53 1952 0
1841 -3 1915 53 74 57 70 13 73 769 l3 677 -1991 0 -1991 0 3 -677z m1310 384
c67 -33 130 -99 146 -155 37 -124 -7 -260 -106 -323 -60 -38 -96 -47 -209 -55
l-93 -7 0 -158 0 -159 -70 0 -70 0 0 446 0 446 173 -4 c165 -3 174 -4 229 -31z
m720 22 c114 -25 233 -110 280 -203 87 -170 53 -437 -71 -564 -86 -88 -190
-114 -436 -110 l-160 3 -3 443 -2 442 169 0 c94 0 194 -5 223 -11z m1098 -44
l0 -55 -205 0 -205 0 0 -140 0 -140 185 0 185 0 0 -50 0 -50 -185 0 -185 0 0
-200 0 -200 -75 0 -75 0 0 445 0 445 280 0 280 0 0 -55z"/>
<path d="M1620 954 l0 -176 95 4 c107 4 137 19 167 79 27 52 24 156 -5 200
-34 52 -78 69 -174 69 l-83 0 0 -176z"/>
<path d="M2360 796 l0 -336 100 0 c169 0 242 42 291 167 18 48 23 78 23 173 1
135 -10 175 -66 236 -58 63 -122 87 -245 92 l-103 4 0 -336z"/>
</g>
</svg>
