<?xml version="1.0" standalone="no"?>
<!DOCTYPE svg PUBLIC "-//W3C//DTD SVG 20010904//EN"
 "http://www.w3.org/TR/2001/REC-SVG-20010904/DTD/svg10.dtd">
<svg version="1.0" xmlns="http://www.w3.org/2000/svg"
 width="50.000000pt" height="50.000000pt" viewBox="0 0 50.000000 50.000000"
 preserveAspectRatio="xMidYMid meet">

<g transform="translate(0.000000,50.000000) scale(0.100000,-0.100000)"
fill="#000000" stroke="none">
<path d="M67 473 c-40 -6 -42 -24 -14 -87 27 -59 63 -86 117 -86 43 0 38 20
-20 74 -51 48 -57 56 -41 56 35 0 131 -119 131 -162 l0 -28 -70 0 -70 0 0 -35
0 -35 150 0 150 0 0 35 0 35 -70 0 c-82 0 -87 9 -39 65 34 39 83 69 102 62 7
-2 1 -9 -13 -17 -44 -22 -82 -63 -68 -72 42 -26 106 5 139 66 28 55 22 64 -47
72 -82 10 -110 -11 -139 -101 -10 -32 -26 4 -19 43 4 18 1 46 -6 63 -21 51
-74 67 -173 52z"/>
<path d="M130 135 c0 -7 5 -37 11 -65 l11 -50 98 0 98 0 11 50 c18 85 25 80
-109 80 -98 0 -120 -3 -120 -15z"/>
</g>
</svg>
