<?xml version="1.0" encoding="UTF-8"?>
<svg version="1.1" xmlns="http://www.w3.org/2000/svg" width="512" height="512">
<path d="M0 0 C15.23733143 12.6441708 28.27966731 29.13764519 30.24609375 49.39453125 C30.6751215 63.42187337 26.65304902 74.91886397 18.9609375 86.45703125 C19.60160692 88.78845326 19.60160692 88.78845326 20.91796875 91.23828125 C21.37107422 92.16253906 21.82417969 93.08679688 22.29101562 94.0390625 C22.78021484 95.00199219 23.26941406 95.96492188 23.7734375 96.95703125 C24.71861901 98.86270085 25.66267956 100.76892696 26.60546875 102.67578125 C27.03190674 103.52076172 27.45834473 104.36574219 27.89770508 105.23632812 C28.9609375 107.45703125 28.9609375 107.45703125 29.9609375 110.45703125 C31.81151272 108.60645603 31.51882761 105.91295839 31.86035156 103.42626953 C34.58553376 83.74650675 40.49927055 66.56345074 53.9609375 51.45703125 C54.95867187 50.31814453 54.95867187 50.31814453 55.9765625 49.15625 C63.58860478 40.99444911 75.03226759 32.14541687 86.25390625 30.0234375 C89.49904354 30.0167465 91.6654931 30.27976461 94.4609375 31.95703125 C96.26386841 34.96191609 96.43838627 37.01375243 96.4921875 40.45703125 C95.71450849 43.38476398 94.27723383 44.53385011 91.9609375 46.45703125 C89.97211279 47.5783028 87.94695991 48.63644914 85.8984375 49.64453125 C70.76922788 57.63316099 60.17969882 69.44234501 53.9609375 85.45703125 C51.69443645 93.41265126 50.22924377 101.37636575 49.13671875 109.56640625 C48.98559128 110.65922913 48.83446381 111.752052 48.67875671 112.87799072 C48.20415374 116.32019188 47.73863607 119.76354789 47.2734375 123.20703125 C46.95047361 125.56128083 46.6269112 127.91544838 46.30273438 130.26953125 C45.51522393 135.9977693 44.73514 141.72698021 43.9609375 147.45703125 C46.04381247 144.3327188 46.30818304 143.06526685 46.671875 139.44140625 C46.77999512 138.44463867 46.88811523 137.44787109 46.99951172 136.42089844 C47.11053223 135.36032227 47.22155273 134.29974609 47.3359375 133.20703125 C50.12420865 109.07072267 57.61755721 85.43755376 76.9609375 69.45703125 C93.12374647 57.64734996 111.26551152 54.07091437 130.7734375 52.58203125 C145.60706984 51.40084174 159.22840456 48.42362526 171.9609375 40.45703125 C173.28647781 39.77500111 174.61736077 39.10280503 175.9609375 38.45703125 C174.60634092 42.28257536 172.8708142 45.12543359 170.3984375 48.33203125 C159.47293722 63.09034718 151.45864344 79.38377265 144.3984375 96.26953125 C134.81770294 119.01768638 119.77195546 134.00532871 96.9609375 143.45703125 C89.97314353 146.06792665 82.83120623 148.23925022 75.390625 148.96875 C67.12746282 149.66765444 67.12746282 149.66765444 60.328125 154.07421875 C58.20087202 157.44708755 56.551629 160.80241752 54.9609375 164.45703125 C54.4246875 165.50761719 53.8884375 166.55820313 53.3359375 167.640625 C44.57781958 185.17875613 41.77060795 203.0888619 40.9609375 222.45703125 C41.94320312 221.31427734 41.94320312 221.31427734 42.9453125 220.1484375 C54.71052384 206.71278916 69.06728138 196.64722631 85.9609375 190.45703125 C86.6209375 190.78703125 87.2809375 191.11703125 87.9609375 191.45703125 C87.41566406 192.01648438 86.87039063 192.5759375 86.30859375 193.15234375 C74.13016063 206.10103674 66.66732421 220.31702755 61.9609375 237.45703125 C63.01667969 236.74289062 64.07242188 236.02875 65.16015625 235.29296875 C70.72284385 231.8198124 76.69141943 229.48663202 82.7734375 227.08203125 C83.90458984 226.61925781 85.03574219 226.15648437 86.20117188 225.6796875 C87.28333984 225.24785156 88.36550781 224.81601562 89.48046875 224.37109375 C90.46120361 223.97873535 91.44193848 223.58637695 92.45239258 223.18212891 C94.9609375 222.45703125 94.9609375 222.45703125 97.9609375 223.45703125 C97.17589844 224.20726562 96.39085937 224.9575 95.58203125 225.73046875 C84.01778866 236.93016429 76.99867828 246.15510503 74.9609375 262.45703125 C92.4509375 262.45703125 109.9409375 262.45703125 127.9609375 262.45703125 C127.9609375 270.37703125 127.9609375 278.29703125 127.9609375 286.45703125 C125.3209375 286.45703125 122.6809375 286.45703125 119.9609375 286.45703125 C119.98456863 287.57759415 120.00819977 288.69815704 120.032547 289.85267639 C120.02876927 294.6752239 119.46062314 299.3534748 118.81518555 304.12670898 C118.69320801 305.05951691 118.57123047 305.99232483 118.44555664 306.95339966 C118.04338265 310.01655747 117.63343878 313.07861058 117.22265625 316.140625 C116.93817606 318.28236734 116.653903 320.4241372 116.36982727 322.56593323 C115.77403805 327.04746142 115.17409802 331.52841122 114.5715332 336.0090332 C113.80206953 341.73498134 113.04546464 347.46254583 112.29230022 353.19065762 C111.70902727 357.61226922 111.11762406 362.03276558 110.52393532 366.45298958 C110.24168442 368.56360921 109.96222461 370.67460413 109.68567467 372.78597832 C109.29717887 375.74450795 108.89740215 378.7013104 108.49487305 381.65795898 C108.38409927 382.52005478 108.2733255 383.38215057 108.15919495 384.27037048 C106.10751338 399.03752647 106.10751338 399.03752647 100.8984375 403.45703125 C97.09752607 406.04488584 95.43129223 406.58348225 90.90142822 406.60420227 C89.83033813 406.61135757 88.75924805 406.61851288 87.65570068 406.62588501 C85.88528412 406.62991837 85.88528412 406.62991837 84.07910156 406.6340332 C82.22043457 406.64389 82.22043457 406.64389 80.32421875 406.65394592 C76.20833091 406.67371704 72.09248209 406.68535005 67.9765625 406.6953125 C66.55954722 406.69935997 65.14253215 406.70347689 63.72551727 406.70766258 C57.06733377 406.72671721 50.40916136 406.7409468 43.75095582 406.74927455 C36.06707698 406.75904387 28.38348644 406.78535394 20.69970918 406.82577544 C14.759919 406.85594911 8.82021139 406.87074466 2.88034606 406.87405556 C-0.66681087 406.87640498 -4.2136599 406.88535034 -7.76073456 406.91051674 C-11.72046604 406.93815635 -15.67981927 406.93396244 -19.63964844 406.92700195 C-21.39791962 406.94621704 -21.39791962 406.94621704 -23.19171143 406.96582031 C-29.44820442 406.9256825 -33.32142294 406.72818166 -38.0390625 402.45703125 C-41.59919024 398.14184011 -42.79552443 394.23801535 -43.4609375 388.79296875 C-43.56685211 388.03173706 -43.67276672 387.27050537 -43.78189087 386.48620605 C-44.13268151 383.93660819 -44.46097148 381.38464179 -44.7890625 378.83203125 C-45.03338187 377.01691627 -45.27902436 375.20197897 -45.52587891 373.38720703 C-46.0713286 369.35561676 -46.60653634 365.32281621 -47.13574219 361.2890625 C-48.04076491 354.40957635 -48.98092955 347.53501881 -49.92300415 340.66053391 C-50.66675435 335.22486367 -51.40305772 329.78817913 -52.13990784 324.35157013 C-52.41327526 322.3378304 -52.6879196 320.32426798 -52.96276855 318.31072998 C-53.48068726 314.50344392 -53.99134259 310.69525181 -54.5 306.88671875 C-54.73391953 305.17977844 -54.73391953 305.17977844 -54.9725647 303.43835449 C-55.72871279 297.71985968 -56.21120887 292.22524546 -56.0390625 286.45703125 C-59.0090625 286.45703125 -61.9790625 286.45703125 -65.0390625 286.45703125 C-65.0390625 278.53703125 -65.0390625 270.61703125 -65.0390625 262.45703125 C-46.5590625 262.45703125 -28.0790625 262.45703125 -9.0390625 262.45703125 C-11.53455428 247.48408055 -15.21196843 240.72996069 -25.19921875 230.4375 C-27.65603413 227.90536738 -29.88350544 225.25356931 -32.0390625 222.45703125 C-28.1964171 223.10802162 -24.80297106 224.22516335 -21.1875 225.671875 C-20.08921875 226.11080078 -18.9909375 226.54972656 -17.859375 227.00195312 C-16.72242188 227.46150391 -15.58546875 227.92105469 -14.4140625 228.39453125 C-13.269375 228.85021484 -12.1246875 229.30589844 -10.9453125 229.77539062 C-2.4294851 233.19674951 -2.4294851 233.19674951 0.9609375 235.45703125 C-5.73828773 219.4216517 -14.00998378 206.4056952 -25.0859375 193.0234375 C-25.59189453 192.41129395 -26.09785156 191.79915039 -26.61914062 191.16845703 C-27.88380226 189.64416576 -29.15621132 188.12630986 -30.4296875 186.609375 C-32.0390625 184.45703125 -32.0390625 184.45703125 -32.0390625 182.45703125 C-18.12592231 186.36596111 -6.05447076 196.40992866 3.9609375 206.45703125 C4.610625 207.04742187 5.2603125 207.6378125 5.9296875 208.24609375 C13.18468381 214.94047671 18.6437583 223.65621444 22.9609375 232.45703125 C22.98434644 224.66684337 23.00199542 216.87666408 23.01274967 209.08644962 C23.01791715 205.46720683 23.02489981 201.84798849 23.03637695 198.22875977 C23.14305159 163.62148083 22.7078174 128.92762366 3.9609375 98.45703125 C3.23648438 98.73417969 2.51203125 99.01132813 1.765625 99.296875 C0.31542969 99.84021484 0.31542969 99.84021484 -1.1640625 100.39453125 C-2.59105469 100.93400391 -2.59105469 100.93400391 -4.046875 101.484375 C-17.42687054 105.83374692 -32.23087402 104.10965797 -44.6640625 97.83203125 C-54.60623392 92.02167133 -61.28467435 84.57240071 -67.03369141 74.75927734 C-77.86187642 56.30711653 -90.39633957 41.33002594 -109.0390625 30.45703125 C-109.64862793 30.10012207 -110.25819336 29.74321289 -110.88623047 29.37548828 C-124.25799399 21.80609596 -139.23726567 18.60300114 -154.03143311 14.95428467 C-157.42365797 14.11409205 -160.81112152 13.25509224 -164.19921875 12.3984375 C-170.80749329 10.73095562 -177.42129073 9.08640103 -184.0390625 7.45703125 C-184.0390625 6.79703125 -184.0390625 6.13703125 -184.0390625 5.45703125 C-174.94579162 2.54217699 -165.85181203 -0.37045307 -156.75696659 -3.28039074 C-152.53205656 -4.63224375 -148.30737737 -5.98480843 -144.08325195 -7.33911133 C-139.99242724 -8.65064559 -135.90096207 -9.96016452 -131.80908012 -11.26839638 C-130.26268869 -11.76316659 -128.71651367 -12.25861386 -127.17057991 -12.75481224 C-119.07271754 -15.3534704 -110.96222347 -17.89677519 -102.80615234 -20.30737305 C-101.7620273 -20.61702515 -101.7620273 -20.61702515 -100.69680882 -20.93293285 C-65.07116635 -31.3642682 -28.60444449 -22.93882988 0 0 Z " fill="#3A9043" transform="translate(224.0390625,65.54296875)"/>
<path d="M0 0 C63.69 0 127.38 0 193 0 C193 7.92 193 15.84 193 24 C190.36 24 187.72 24 185 24 C185.02363113 25.1205629 185.04726227 26.24112579 185.0716095 27.39564514 C185.06783177 32.21819265 184.49968564 36.89644355 183.85424805 41.66967773 C183.73227051 42.60248566 183.61029297 43.53529358 183.48461914 44.49636841 C183.08244515 47.55952622 182.67250128 50.62157933 182.26171875 53.68359375 C181.97723856 55.82533609 181.6929655 57.96710595 181.40888977 60.10890198 C180.81310055 64.59043017 180.21316052 69.07137997 179.6105957 73.55200195 C178.84113203 79.27795009 178.08452714 85.00551458 177.33136272 90.73362637 C176.74808977 95.15523797 176.15668656 99.57573433 175.56299782 103.99595833 C175.28074692 106.10657796 175.00128711 108.21757288 174.72473717 110.32894707 C174.33624137 113.2874767 173.93646465 116.24427915 173.53393555 119.20092773 C173.36777489 120.49407143 173.36777489 120.49407143 173.19825745 121.81333923 C171.14657588 136.58049522 171.14657588 136.58049522 165.9375 141 C162.13658857 143.58785459 160.47035473 144.126451 155.94049072 144.14717102 C154.86940063 144.15432632 153.79831055 144.16148163 152.69476318 144.16885376 C151.51448547 144.17154266 150.33420776 144.17423157 149.11816406 144.17700195 C147.87905273 144.18357315 146.63994141 144.19014435 145.36328125 144.19691467 C141.24739341 144.21668579 137.13154459 144.2283188 133.015625 144.23828125 C131.59860972 144.24232872 130.18159465 144.24644564 128.76457977 144.25063133 C122.10639627 144.26968596 115.44822386 144.28391555 108.79001832 144.2922433 C101.10613948 144.30201262 93.42254894 144.32832269 85.73877168 144.36874419 C79.7989815 144.39891786 73.85927389 144.41371341 67.91940856 144.41702431 C64.37225163 144.41937373 60.8254026 144.42831909 57.27832794 144.45348549 C53.31859646 144.4811251 49.35924323 144.47693119 45.39941406 144.4699707 C43.64114288 144.48918579 43.64114288 144.48918579 41.84735107 144.50878906 C35.59085808 144.46865125 31.71763956 144.27115041 27 140 C23.43987226 135.68480886 22.24353807 131.7809841 21.578125 126.3359375 C21.41925308 125.19408997 21.41925308 125.19408997 21.25717163 124.0291748 C20.90638099 121.47957694 20.57809102 118.92761054 20.25 116.375 C20.00568063 114.55988502 19.76003814 112.74494772 19.51318359 110.93017578 C18.9677339 106.89858551 18.43252616 102.86578496 17.90332031 98.83203125 C16.99829759 91.9525451 16.05813295 85.07798756 15.11605835 78.20350266 C14.37230815 72.76783242 13.63600478 67.33114788 12.89915466 61.89453888 C12.62578724 59.88079915 12.3511429 57.86723673 12.07629395 55.85369873 C11.55837524 52.04641267 11.04771991 48.23822056 10.5390625 44.4296875 C10.38311615 43.29172729 10.2271698 42.15376709 10.0664978 40.98132324 C9.31034971 35.26282843 8.82785363 29.76821421 9 24 C6.03 24 3.06 24 0 24 C0 16.08 0 8.16 0 0 Z " fill="#977A70" transform="translate(159,328)"/>
<path d="M0 0 C0.66 0 1.32 0 2 0 C0.64540342 3.82554411 -1.0901233 6.66840234 -3.5625 9.875 C-14.48800028 24.63331593 -22.50229406 40.9267414 -29.5625 57.8125 C-39.15485911 80.58825606 -54.19364638 95.50303371 -77 105 C-88.07192639 109.22166978 -99.2384379 111.01373634 -111 112 C-106.25050027 104.21710478 -99.60303411 98.19358692 -93.03808594 91.94287109 C-91.77757887 90.74125211 -90.5262103 89.52986316 -89.29003906 88.30322266 C-82.71011164 81.84864676 -77.13825183 79.2841284 -67.9375 79.125 C-67.11531982 79.14828369 -66.29313965 79.17156738 -65.44604492 79.19555664 C-60.63507799 79.39647628 -60.63507799 79.39647628 -56.46875 77.17578125 C-54.46966296 74.21436774 -54.49826106 72.51217261 -55 69 C-56.38885248 66.18219466 -56.38885248 66.18219466 -58 64 C-57.50628906 63.64808594 -57.01257813 63.29617187 -56.50390625 62.93359375 C-52.98279919 60.22014505 -51.22564127 58.72706631 -49.875 54.375 C-49.78618629 51.08047071 -49.78618629 51.08047071 -51.0625 48.625 C-53.73415259 46.38425912 -55.52905199 46.06941896 -59 46 C-63.36835669 48.24076328 -67.11294568 51.32853046 -70.9375 54.375 C-71.53240234 54.84421875 -72.12730469 55.3134375 -72.74023438 55.796875 C-75.6476284 58.09737038 -78.50723126 60.43200601 -81.31640625 62.8515625 C-84 65 -84 65 -86 65 C-86.45375 63.865625 -86.9075 62.73125 -87.375 61.5625 C-88.57095806 57.95278308 -88.57095806 57.95278308 -91 57 C-94.45192501 56.62479076 -96.3094512 56.52950284 -99.21875 58.51171875 C-101.36829577 61.51448334 -101.10087663 63.25379412 -100.79174805 66.83837891 C-100.39588799 72.26682003 -100.53987845 76.87588178 -103.69970703 81.47265625 C-108.03296886 86.3821759 -112.91001523 90.64501434 -117.83740234 94.94238281 C-120.59269344 97.56392191 -122.75906277 100.42384657 -124.91723633 103.54443359 C-125.27454834 104.02477051 -125.63186035 104.50510742 -126 105 C-126.33 105 -126.66 105 -127 105 C-126.30466746 77.53436462 -119.14647258 53.14647258 -99.29296875 33.29296875 C-85.64926491 20.71154842 -67.09394191 15.95987323 -49.03515625 14.6171875 C-22.54540604 12.77220431 -22.54540604 12.77220431 0 0 Z " fill="#419949" transform="translate(398,104)"/>
<path d="M0 0 C63.69 0 127.38 0 193 0 C193 7.92 193 15.84 193 24 C129.31 24 65.62 24 0 24 C0 16.08 0 8.16 0 0 Z " fill="#C6B9B5" transform="translate(159,328)"/>
<path d="M0 0 C13.91314019 3.90892986 25.98459174 13.95289741 36 24 C36.6496875 24.59039062 37.299375 25.18078125 37.96875 25.7890625 C48.31793696 35.33853956 54.68169526 48.1752052 60 61 C60 61.66 60 62.32 60 63 C63.29551891 61.35224055 64.21744725 57.7717905 65.75 54.5625 C75.76356264 34.19490006 88.42301117 22.63826871 108.6875 12.375 C110.01648315 11.69932983 110.01648315 11.69932983 111.37231445 11.01000977 C112.20206787 10.60194092 113.03182129 10.19387207 113.88671875 9.7734375 C114.63139404 9.40653809 115.37606934 9.03963867 116.14331055 8.66162109 C116.75601807 8.44328613 117.36872559 8.22495117 118 8 C118.99 8.495 118.99 8.495 120 9 C119.45472656 9.55945313 118.90945313 10.11890625 118.34765625 10.6953125 C106.16922313 23.64400549 98.70638671 37.8599963 94 55 C95.58361328 53.92878906 95.58361328 53.92878906 97.19921875 52.8359375 C102.76190635 49.36278115 108.73048193 47.02960077 114.8125 44.625 C115.94365234 44.16222656 117.07480469 43.69945312 118.24023438 43.22265625 C119.32240234 42.79082031 120.40457031 42.35898437 121.51953125 41.9140625 C122.50026611 41.5217041 123.48100098 41.1293457 124.49145508 40.72509766 C127 40 127 40 130 41 C129.21496094 41.75023437 128.42992187 42.50046875 127.62109375 43.2734375 C116.05685116 54.47313304 109.03774078 63.69807378 107 80 C79.28 80 51.56 80 23 80 C22.34 76.04 21.68 72.08 21 68 C17.85661477 59.72241889 12.90804745 54.23411676 6.83984375 47.98046875 C4.38302837 45.44833613 2.15555706 42.79653806 0 40 C3.8426454 40.65099037 7.23609144 41.7681321 10.8515625 43.21484375 C11.94984375 43.65376953 13.048125 44.09269531 14.1796875 44.54492188 C15.88511719 45.23424805 15.88511719 45.23424805 17.625 45.9375 C18.7696875 46.39318359 19.914375 46.84886719 21.09375 47.31835938 C29.6095774 50.73971826 29.6095774 50.73971826 33 53 C26.30077477 36.96462045 18.02907872 23.94866395 6.953125 10.56640625 C6.44716797 9.9542627 5.94121094 9.34211914 5.41992188 8.71142578 C4.15526024 7.18713451 2.88285118 5.66927861 1.609375 4.15234375 C0 2 0 2 0 0 Z " fill="#3E923F" transform="translate(192,248)"/>
<path d="M0 0 C6.02021672 1.05567457 11.50657362 3.30050431 17.1875 5.5 C18.27353516 5.89703125 19.35957031 6.2940625 20.47851562 6.703125 C33.87780864 11.91798498 42.42616236 21.0276961 48.375 33.9375 C50 37.68292683 50 37.68292683 50 40 C41.09 40 32.18 40 23 40 C22.34 36.04 21.68 32.08 21 28 C17.85661477 19.72241889 12.90804745 14.23411676 6.83984375 7.98046875 C4.38302837 5.44833613 2.15555706 2.79653806 0 0 Z " fill="#63AA46" transform="translate(192,288)"/>
</svg>
