<svg xmlns="http://www.w3.org/2000/svg" xmlns:xlink="http://www.w3.org/1999/xlink" version="1.1" width="256" height="256" viewBox="0 0 256 256" fill="#343434" xml:space="preserve">
<g style="stroke: none; stroke-width: 0; stroke-dasharray: none; stroke-linecap: butt; stroke-linejoin: miter; stroke-miterlimit: 10; fill: none; fill-rule: nonzero; opacity: 1;" transform="translate(1.4065934065934016 1.4065934065934016) scale(2.81 2.81)">
	<path d="M 71.209 45.949 c -0.19 -0.215 -0.463 -0.338 -0.75 -0.338 H 47.157 c -0.456 -1.419 -0.805 -2.846 -1.045 -4.328 c 8.333 -2.804 13.092 -8.216 14.155 -16.165 C 60.952 13.437 53.389 6.667 44.9 0.205 c -0.33 -0.251 -0.78 -0.273 -1.132 -0.055 c -0.352 0.218 -0.533 0.63 -0.456 1.038 c 0.725 3.811 -1.88 6.777 -4.897 10.211 c -2.603 2.963 -5.552 6.322 -6.787 10.841 c -2.022 8.136 0.239 14.276 7.117 19.322 c 0.342 0.25 0.804 0.259 1.153 0.021 c 0.35 -0.238 0.513 -0.67 0.405 -1.08 c -1.626 -6.218 0.014 -12.257 2.871 -17.124 c -2.595 7.452 -2.665 14.11 -0.46 22.231 H 19.541 c -0.287 0 -0.56 0.123 -0.75 0.338 c -0.19 0.214 -0.278 0.501 -0.243 0.786 l 1.685 13.479 c 0.063 0.5 0.488 0.876 0.992 0.876 h 4.782 l 3.504 28.034 C 29.574 89.624 30 90 30.504 90 h 28.992 c 0.504 0 0.93 -0.376 0.992 -0.876 l 3.504 -28.034 h 4.782 c 0.504 0 0.93 -0.376 0.992 -0.876 l 1.685 -13.479 C 71.487 46.45 71.398 46.163 71.209 45.949 z" style="stroke: none; stroke-width: 1; stroke-dasharray: none; stroke-linecap: butt; stroke-linejoin: miter; stroke-miterlimit: 10; fill: rgb(0,0,0); fill-rule: nonzero; opacity: 1;" transform=" matrix(1 0 0 1 0 0) " stroke-linecap="round"/>
</g>
</svg>